<?xml version="1.0" encoding="UTF-8"?>
<svg width="700pt" height="700pt" version="1.1" viewBox="0 0 700 700" xmlns="http://www.w3.org/2000/svg">
 <g fill-rule="evenodd">
  <path d="m233.33 177.33c-18.039 0-32.664 14.625-32.664 32.668v186.67c0 18.039 14.625 32.664 32.664 32.664h186.67c18.043 0 32.668-14.625 32.668-32.664v-70c0-7.7344 6.2656-14 14-14 7.7305 0 14 6.2656 14 14v70c0 33.504-27.164 60.664-60.668 60.664h-186.67c-33.504 0-60.664-27.16-60.664-60.664v-186.67c0-33.508 27.16-60.668 60.664-60.668h46.668c7.7305 0 14 6.2695 14 14 0 7.7344-6.2695 14-14 14z"/>
  <path d="m513.34 102.67c7.7344 0 14 6.2695 14 14v105c0 7.7305-6.2695 14-14 14-7.7305 0-14-6.2695-14-14v-71.203l-104.44 104.43c-5.4648 5.4688-14.332 5.4688-19.797 0-5.4688-5.4688-5.4688-14.332 0-19.797l104.43-104.43h-71.203c-7.7305 0-14-6.2695-14-14 0-7.7344 6.2695-14 14-14z"/>
 </g>
</svg>
